<svg width="20" height="18" viewBox="0 0 20 18" version="1.1" xmlns="http://www.w3.org/2000/svg" xmlns:xlink="http://www.w3.org/1999/xlink">
<title>Vector</title>
<desc>Created using Figma</desc>
<g id="Canvas" transform="translate(-3953 -755)">
<g id="Vector">
<mask id="mask0_outline_ins">
<use xlink:href="#path0_fill" fill="white" transform="translate(3953 755)"/>
</mask>
<g mask="url(#mask0_outline_ins)">
<use xlink:href="#path1_stroke_2x" transform="translate(3953 755)" fill="#808080"/>
</g>
</g>
</g>
<defs>
<path id="path0_fill" d="M 9.99951 18C -9.50933 7.29702 4.60006 -6.00936 9.99951 2.95224C 15.3998 -6.00936 29.5101 7.29702 9.99951 18Z"/>
<path id="path1_stroke_2x" d="M 9.99951 18L 9.51852 18.8767L 9.99949 19.1406L 10.4805 18.8767L 9.99951 18ZM 9.99951 2.95224L 9.14296 3.46831L 9.99944 4.88983L 10.856 3.46837L 9.99951 2.95224ZM 10.4805 17.1233C 5.71317 14.5078 3.11635 11.7955 1.90022 9.41786C 0.693475 7.05862 0.827699 5.00734 1.55418 3.5474C 2.29405 2.06057 3.66327 1.13574 5.06478 1.01391C 6.41642 0.896424 7.96545 1.51397 9.14296 3.46831L 10.856 2.43616C 9.33383 -0.0902937 7.0944 -1.17005 4.89159 -0.978575C 2.73864 -0.791433 0.787426 0.598961 -0.236381 2.6564C -1.27357 4.74073 -1.34625 7.46276 0.119623 10.3286C 1.57611 13.1761 4.53142 16.1407 9.51852 18.8767L 10.4805 17.1233ZM 10.856 3.46837C 12.0337 1.51402 13.583 0.896416 14.9348 1.01391C 16.3366 1.13574 17.7059 2.06062 18.4458 3.54743C 19.1723 5.00733 19.3065 7.05858 18.0997 9.41782C 16.8834 11.7954 14.2863 14.5078 9.51855 17.1233L 10.4805 18.8767C 15.468 16.1407 18.4236 13.1762 19.8802 10.3287C 21.3463 7.46279 21.2736 4.74074 20.2364 2.65638C 19.2125 0.598915 17.2611 -0.791441 15.108 -0.978575C 12.9051 -1.17004 10.6655 -0.0903452 9.143 2.4361L 10.856 3.46837Z"/>
</defs>
</svg>
